<?xml version="1.0" encoding="UTF-8" standalone="no"?>
<svg
   width="51.619797"
   zoomAndPan="magnify"
   viewBox="0 0 38.714848 38.710967"
   height="51.614624"
   preserveAspectRatio="xMidYMid"
   version="1.0"
   id="svg2115"
   xmlns="http://www.w3.org/2000/svg"
   xmlns:svg="http://www.w3.org/2000/svg">
  <defs
     id="defs174">
    <clipPath
       id="b0c5117180">
      <path
         d="m 131,602 h 13 v 12.87109 h -13 z m 0,0"
         clip-rule="nonzero"
         id="path155" />
    </clipPath>
    <clipPath
       id="aef74a2fb3">
      <path
         d="m 120,575.89453 h 16 V 591 h -16 z m 0,0"
         clip-rule="nonzero"
         id="path156" />
    </clipPath>
    <clipPath
       id="262aa993df">
      <path
         d="M 108.84375,594 H 119 v 8 h -10.15625 z m 0,0"
         clip-rule="nonzero"
         id="path157" />
    </clipPath>
    <clipPath
       id="9c57c3c212">
      <path
         d="m 138,594 h 9.82422 v 8 H 138 Z m 0,0"
         clip-rule="nonzero"
         id="path158" />
    </clipPath>
  </defs>
  <g
     id="g2118"
     transform="translate(-108.84375,-575.89454)">
    <g
       clip-path="url(#b0c5117180)"
       id="g246">
      <path
         fill="#e0deda"
         d="m 137.37109,602.11719 c -0.41015,0 -0.8164,0.0391 -1.21875,0.12109 -0.40234,0.0781 -0.79297,0.19922 -1.17187,0.35547 -0.37891,0.15625 -0.73828,0.34766 -1.07813,0.57422 -0.34375,0.23047 -0.65625,0.48828 -0.94922,0.77734 -0.28906,0.28906 -0.54687,0.60547 -0.77343,0.94531 -0.23047,0.34375 -0.42188,0.70313 -0.57813,1.08204 -0.15625,0.3789 -0.27734,0.76953 -0.35547,1.17187 -0.0781,0.40234 -0.12109,0.80469 -0.12109,1.21484 0,0.41016 0.043,0.81641 0.12109,1.21875 0.0781,0.40235 0.19922,0.79297 0.35547,1.17188 0.15625,0.37891 0.34766,0.73828 0.57813,1.07812 0.22656,0.34375 0.48437,0.65625 0.77343,0.94922 0.29297,0.28907 0.60547,0.54688 0.94922,0.77344 0.33985,0.23047 0.69922,0.42188 1.07813,0.57813 0.3789,0.15625 0.76953,0.27734 1.17187,0.35546 0.40235,0.082 0.8086,0.1211 1.21875,0.1211 0.41016,0 0.81641,-0.0391 1.21875,-0.1211 0.40235,-0.0781 0.78907,-0.19921 1.16797,-0.35546 0.37891,-0.15625 0.74219,-0.34766 1.08203,-0.57813 0.33985,-0.22656 0.65625,-0.48437 0.94532,-0.77344 0.28906,-0.29297 0.54687,-0.60547 0.77734,-0.94922 0.22656,-0.33984 0.41797,-0.69921 0.57422,-1.07812 0.16015,-0.37891 0.27734,-0.76953 0.35547,-1.17188 0.082,-0.40234 0.12109,-0.80859 0.12109,-1.21875 0,-0.40625 -0.0391,-0.8125 -0.12109,-1.21484 -0.0781,-0.40234 -0.19922,-0.79297 -0.35547,-1.17187 -0.15625,-0.37891 -0.34766,-0.73829 -0.57813,-1.07813 -0.22656,-0.33984 -0.48437,-0.65625 -0.77734,-0.94531 -0.28906,-0.28906 -0.60156,-0.55078 -0.94531,-0.77735 -0.33985,-0.22656 -0.69922,-0.42187 -1.07813,-0.57812 -0.3789,-0.15625 -0.76953,-0.27344 -1.17187,-0.35547 -0.39844,-0.082 -0.80469,-0.12109 -1.21485,-0.12109 z M 140,609.34766 h -1.64453 v 1.64062 c 0,0.27344 -0.0977,0.50781 -0.28906,0.69922 -0.19141,0.19141 -0.42579,0.28906 -0.69532,0.28906 -0.27343,0 -0.5039,-0.0976 -0.69922,-0.28906 -0.1914,-0.19141 -0.28906,-0.42578 -0.28906,-0.69922 v -1.64062 h -1.64062 c -0.27344,0 -0.50391,-0.0977 -0.69922,-0.28907 -0.19141,-0.1914 -0.28906,-0.42578 -0.28906,-0.69922 0,-0.26953 0.0977,-0.5039 0.28906,-0.69531 0.19531,-0.1914 0.42578,-0.28906 0.69922,-0.28906 h 1.64062 v -1.64453 c 0,-0.26953 0.0977,-0.50391 0.28906,-0.69531 0.19532,-0.19141 0.42579,-0.28907 0.69922,-0.28907 0.26953,0 0.50391,0.0977 0.69532,0.28907 0.1914,0.1914 0.28906,0.42578 0.28906,0.69531 V 607.375 H 140 c 0.26953,0 0.50391,0.0977 0.69531,0.28906 0.19141,0.19141 0.28906,0.42578 0.28906,0.69531 0,0.27344 -0.0977,0.50782 -0.28906,0.69922 -0.1914,0.19141 -0.42578,0.28907 -0.69531,0.28907 z m 0,0"
         fill-opacity="1"
         fill-rule="nonzero"
         id="path245" />
    </g>
    <g
       clip-path="url(#aef74a2fb3)"
       id="g247">
      <path
         fill="#e0deda"
         d="m 135.72656,583.38672 c 0,0.49609 -0.0469,0.98828 -0.14453,1.47265 -0.0977,0.48829 -0.24219,0.96094 -0.42969,1.41797 -0.1914,0.46094 -0.42187,0.89453 -0.69922,1.3086 -0.27734,0.41015 -0.58984,0.79297 -0.9414,1.14453 -0.34766,0.35156 -0.73047,0.66406 -1.14453,0.9414 -0.41407,0.27344 -0.84766,0.50782 -1.30469,0.69532 -0.46094,0.1914 -0.93359,0.33593 -1.41797,0.42968 -0.48828,0.0977 -0.98047,0.14844 -1.47656,0.14844 -0.49609,0 -0.98828,-0.0508 -1.47266,-0.14844 -0.48828,-0.0937 -0.96093,-0.23828 -1.41797,-0.42968 -0.46093,-0.1875 -0.89453,-0.42188 -1.30859,-0.69532 -0.41406,-0.27734 -0.79297,-0.58984 -1.14453,-0.9414 -0.35156,-0.35156 -0.66406,-0.73438 -0.94141,-1.14453 -0.27343,-0.41407 -0.50781,-0.84766 -0.69922,-1.3086 -0.1875,-0.45703 -0.33203,-0.92968 -0.42968,-1.41797 -0.0937,-0.48437 -0.14453,-0.97656 -0.14453,-1.47265 0,-0.4961 0.0508,-0.98828 0.14453,-1.47656 0.0977,-0.48438 0.24218,-0.95704 0.42968,-1.41797 0.19141,-0.45703 0.42579,-0.89453 0.69922,-1.30469 0.27735,-0.41406 0.58985,-0.79688 0.94141,-1.14844 0.35156,-0.34765 0.73047,-0.66406 1.14453,-0.9375 0.41406,-0.27734 0.84766,-0.50781 1.30859,-0.69922 0.45704,-0.1914 0.92969,-0.33203 1.41797,-0.42968 0.48438,-0.0977 0.97657,-0.14454 1.47266,-0.14454 0.49609,0 0.98828,0.0469 1.47656,0.14454 0.48438,0.0976 0.95703,0.23828 1.41797,0.42968 0.45703,0.19141 0.89062,0.42188 1.30469,0.69922 0.41406,0.27344 0.79687,0.58985 1.14453,0.9375 0.35156,0.35156 0.66406,0.73438 0.9414,1.14844 0.27735,0.41016 0.50782,0.84766 0.69922,1.30469 0.1875,0.46093 0.33203,0.93359 0.42969,1.41797 0.0977,0.48828 0.14453,0.98046 0.14453,1.47656 z m 0,0"
         fill-opacity="1"
         fill-rule="nonzero"
         id="path246" />
    </g>
    <path
       fill="#e0deda"
       d="m 119.95313,587.32812 c 0,0.32422 -0.0312,0.64454 -0.0937,0.96094 -0.0625,0.32031 -0.15625,0.62891 -0.28125,0.92578 -0.125,0.30078 -0.27735,0.58203 -0.45704,0.85157 -0.17968,0.26953 -0.38281,0.51953 -0.61328,0.75 -0.22656,0.22656 -0.47656,0.42968 -0.74609,0.60937 -0.26953,0.18359 -0.55469,0.33203 -0.85156,0.45703 -0.30078,0.125 -0.60938,0.21875 -0.92578,0.28125 -0.31641,0.0625 -0.63672,0.0937 -0.96094,0.0937 -0.32422,0 -0.64453,-0.0312 -0.96094,-0.0937 -0.31641,-0.0625 -0.625,-0.15625 -0.92578,-0.28125 -0.29688,-0.125 -0.58203,-0.27344 -0.85156,-0.45703 -0.26953,-0.17969 -0.51953,-0.38281 -0.7461,-0.60937 -0.23047,-0.23047 -0.43359,-0.48047 -0.61328,-0.75 -0.17969,-0.26954 -0.33203,-0.55079 -0.45703,-0.85157 -0.125,-0.29687 -0.21875,-0.60547 -0.28125,-0.92578 -0.0625,-0.3164 -0.0937,-0.63672 -0.0937,-0.96094 0,-0.32421 0.0312,-0.64453 0.0937,-0.96093 0.0625,-0.31641 0.15625,-0.625 0.28125,-0.92578 0.125,-0.29688 0.27734,-0.58204 0.45703,-0.85157 0.17969,-0.26953 0.38281,-0.51953 0.61328,-0.74609 0.22657,-0.23047 0.47657,-0.43359 0.7461,-0.61328 0.26953,-0.17969 0.55468,-0.33203 0.85156,-0.45703 0.30078,-0.1211 0.60937,-0.21485 0.92578,-0.27735 0.31641,-0.0664 0.63672,-0.0976 0.96094,-0.0976 0.32422,0 0.64453,0.0312 0.96094,0.0976 0.3164,0.0625 0.625,0.15625 0.92578,0.27735 0.29687,0.125 0.58203,0.27734 0.85156,0.45703 0.26953,0.17969 0.51953,0.38281 0.74609,0.61328 0.23047,0.22656 0.4336,0.47656 0.61328,0.74609 0.17969,0.26953 0.33204,0.55469 0.45704,0.85157 0.125,0.30078 0.21875,0.60937 0.28125,0.92578 0.0625,0.3164 0.0937,0.63672 0.0937,0.96093 z m 0,0"
       fill-opacity="1"
       fill-rule="nonzero"
       id="path247" />
    <path
       fill="#e0deda"
       d="m 146.24219,587.32812 c 0,0.32422 -0.0312,0.64454 -0.0937,0.96094 -0.0625,0.32031 -0.15625,0.62891 -0.28125,0.92578 -0.125,0.30078 -0.27344,0.58203 -0.45313,0.85157 -0.18359,0.26953 -0.38672,0.51953 -0.61328,0.75 -0.23047,0.22656 -0.48047,0.42968 -0.75,0.60937 -0.26953,0.18359 -0.55078,0.33203 -0.85156,0.45703 -0.29688,0.125 -0.60547,0.21875 -0.92578,0.28125 -0.31641,0.0625 -0.63672,0.0937 -0.96094,0.0937 -0.32422,0 -0.64453,-0.0312 -0.96094,-0.0937 -0.3164,-0.0625 -0.625,-0.15625 -0.92578,-0.28125 -0.29687,-0.125 -0.58203,-0.27344 -0.85156,-0.45703 -0.26953,-0.17969 -0.51563,-0.38281 -0.7461,-0.60937 -0.23046,-0.23047 -0.43359,-0.48047 -0.61328,-0.75 -0.17968,-0.26954 -0.33203,-0.55079 -0.45703,-0.85157 -0.12109,-0.29687 -0.21484,-0.60547 -0.27734,-0.92578 -0.0664,-0.3164 -0.0977,-0.63672 -0.0977,-0.96094 0,-0.32421 0.0312,-0.64453 0.0977,-0.96093 0.0625,-0.31641 0.15625,-0.625 0.27734,-0.92578 0.125,-0.29688 0.27735,-0.58204 0.45703,-0.85157 0.17969,-0.26953 0.38282,-0.51953 0.61328,-0.74609 0.23047,-0.23047 0.47657,-0.43359 0.7461,-0.61328 0.26953,-0.17969 0.55469,-0.33203 0.85156,-0.45703 0.30078,-0.1211 0.60938,-0.21485 0.92578,-0.27735 0.31641,-0.0664 0.63672,-0.0976 0.96094,-0.0976 0.32422,0 0.64453,0.0312 0.96094,0.0976 0.32031,0.0625 0.6289,0.15625 0.92578,0.27735 0.30078,0.125 0.58203,0.27734 0.85156,0.45703 0.26953,0.17969 0.51953,0.38281 0.75,0.61328 0.22656,0.22656 0.42969,0.47656 0.61328,0.74609 0.17969,0.26953 0.32813,0.55469 0.45313,0.85157 0.125,0.30078 0.21875,0.60937 0.28125,0.92578 0.0625,0.3164 0.0937,0.63672 0.0937,0.96093 z m 0,0"
       fill-opacity="1"
       fill-rule="nonzero"
       id="path248" />
    <path
       fill="#e0deda"
       d="m 139.86719,600.52734 c -0.55078,-0.17578 -1.10938,-0.28906 -1.6836,-0.34375 -0.57422,-0.0547 -1.14843,-0.0508 -1.71875,0.0156 -0.57422,0.0625 -1.13281,0.1875 -1.67968,0.36719 -0.54688,0.18359 -1.06641,0.42187 -1.56641,0.71484 -0.49609,0.28906 -0.95703,0.62891 -1.38281,1.01953 -0.42578,0.38672 -0.80469,0.81641 -1.14063,1.28516 -0.33594,0.46875 -0.61719,0.96484 -0.84765,1.49218 -0.23438,0.53125 -0.40625,1.07422 -0.52344,1.64063 h -10.80469 c -0.21875,-0.004 -0.43359,-0.0312 -0.64844,-0.0781 -0.21093,-0.0508 -0.41796,-0.12109 -0.61328,-0.21875 -0.19531,-0.0937 -0.38281,-0.20703 -0.55468,-0.34375 -0.17188,-0.13671 -0.32422,-0.28906 -0.46485,-0.45703 -0.13672,-0.16797 -0.25781,-0.35156 -0.35547,-0.54687 -0.0977,-0.19531 -0.17578,-0.39844 -0.22656,-0.60938 -0.0547,-0.21093 -0.0859,-0.42578 -0.0937,-0.64453 -0.004,-0.21875 0.0117,-0.4375 0.0508,-0.65234 0.13672,-0.66016 0.32031,-1.30469 0.5586,-1.9375 0.23437,-0.63281 0.51953,-1.24219 0.85546,-1.82813 0.33204,-0.58593 0.70704,-1.14453 1.12891,-1.67187 0.42188,-0.52735 0.87891,-1.01563 1.37891,-1.47266 0.5,-0.45312 1.03125,-0.86719 1.59375,-1.23828 0.5625,-0.36719 1.15234,-0.69141 1.76562,-0.96875 0.61719,-0.27734 1.25,-0.50781 1.89844,-0.68359 0.65234,-0.17969 1.3125,-0.30469 1.98437,-0.375 0.66797,-0.0742 1.33985,-0.0937 2.01563,-0.0625 0.67187,0.0351 1.33984,0.12109 2,0.25781 0.66015,0.14062 1.30469,0.32812 1.9375,0.57031 0.6289,0.23828 1.23828,0.52735 1.82031,0.86328 0.58594,0.33985 1.14063,0.71875 1.66406,1.14453 0.52344,0.42188 1.01172,0.88672 1.46485,1.38672 0.44922,0.5 0.85937,1.03516 1.22656,1.60157 0.36719,0.5664 0.6875,1.15625 0.96094,1.77343 z m 0,0"
       fill-opacity="1"
       fill-rule="nonzero"
       id="path249" />
    <g
       clip-path="url(#262aa993df)"
       id="g250">
      <path
         fill="#e0deda"
         d="m 118.01953,594.99219 c -1.91015,1.80078 -3.24609,3.95703 -4.00781,6.46875 h -4.24609 c -0.27344,-0.004 -0.50391,-0.10157 -0.69532,-0.29297 -0.1914,-0.19141 -0.28906,-0.42188 -0.28906,-0.69531 0,-0.26954 0.0156,-0.53516 0.0508,-0.80469 0.0352,-0.26563 0.0859,-0.53125 0.15625,-0.79297 0.0703,-0.26172 0.15625,-0.51563 0.25781,-0.76563 0.10157,-0.25 0.21875,-0.49218 0.35547,-0.72656 0.13282,-0.23437 0.28125,-0.45703 0.44141,-0.67187 0.16406,-0.21485 0.33984,-0.41797 0.52734,-0.61328 0.19141,-0.19141 0.39063,-0.3711 0.60547,-0.53516 0.21094,-0.16797 0.4336,-0.32031 0.66406,-0.45703 0.23438,-0.13672 0.47266,-0.26172 0.71875,-0.36719 0.25,-0.10547 0.50391,-0.19531 0.76172,-0.26953 0.26172,-0.0742 0.52344,-0.13281 0.78907,-0.17188 0.26953,-0.0391 0.53515,-0.0625 0.80468,-0.0664 0.26953,-0.004 0.53907,0.008 0.8086,0.0391 0.26953,0.0273 0.53125,0.0781 0.79687,0.14063 0.26172,0.0625 0.51563,0.14453 0.76953,0.24218 0.25,0.0977 0.4961,0.21094 0.73047,0.33985 z m 0,0"
         fill-opacity="1"
         fill-rule="nonzero"
         id="path250" />
    </g>
    <g
       clip-path="url(#9c57c3c212)"
       id="g251">
      <path
         fill="#e0deda"
         d="m 147.55859,600.47266 c -0.004,0.27343 -0.10156,0.5039 -0.29297,0.69531 -0.1914,0.1914 -0.42187,0.28906 -0.69531,0.29297 h -4.125 l -0.77734,-1.73438 c -0.80078,-1.80469 -1.91797,-3.38281 -3.35156,-4.73437 0.23828,-0.12891 0.48046,-0.24219 0.73437,-0.33985 0.25,-0.0976 0.50781,-0.17968 0.76953,-0.24218 0.26172,-0.0625 0.52735,-0.11329 0.79297,-0.14063 0.26953,-0.0312 0.53906,-0.043 0.80859,-0.0391 0.26954,0.004 0.53907,0.0273 0.80469,0.0664 0.26563,0.0391 0.53125,0.0977 0.78906,0.17188 0.25782,0.0742 0.51172,0.16406 0.76172,0.26953 0.2461,0.10547 0.48828,0.23047 0.71875,0.36719 0.23047,0.13672 0.45313,0.28906 0.66797,0.45703 0.21094,0.16406 0.41016,0.34375 0.60156,0.53516 0.1875,0.19531 0.36329,0.39843 0.52735,0.61328 0.16406,0.21484 0.30859,0.4375 0.44531,0.67187 0.13281,0.23438 0.25,0.47656 0.35156,0.72656 0.10157,0.25 0.1875,0.50391 0.25782,0.76563 0.0703,0.26172 0.12109,0.52734 0.15625,0.79297 0.0352,0.26953 0.0547,0.53515 0.0547,0.80469 z m 0,0"
         fill-opacity="1"
         fill-rule="nonzero"
         id="path251" />
    </g>
  </g>
</svg>
