<?xml version="1.0" encoding="UTF-8" standalone="no"?>
<svg
   width="50.208328"
   zoomAndPan="magnify"
   viewBox="0 0 37.656246 29.824218"
   height="39.765625"
   preserveAspectRatio="xMidYMid"
   version="1.0"
   id="svg2115"
   xmlns="http://www.w3.org/2000/svg"
   xmlns:svg="http://www.w3.org/2000/svg">
  <defs
     id="defs174">
    <clipPath
       id="10e1e5dedd">
      <path
         d="m 109,439 h 28 v 15.78125 h -28 z m 0,0"
         clip-rule="nonzero"
         id="path159" />
    </clipPath>
    <clipPath
       id="436ed3503d">
      <path
         d="m 116,424.80078 h 14 V 439 h -14 z m 0,0"
         clip-rule="nonzero"
         id="path160" />
    </clipPath>
    <clipPath
       id="e872ba33f5">
      <path
         d="m 133,431 h 14.82422 v 15 H 133 Z m 0,0"
         clip-rule="nonzero"
         id="path161" />
    </clipPath>
  </defs>
  <g
     id="g2119"
     transform="translate(-109.4922,-424.80079)">
    <g
       clip-path="url(#10e1e5dedd)"
       id="g252">
      <path
         fill="#e0deda"
         d="m 128.40625,439.10547 c -0.76562,0.51953 -1.58984,0.91797 -2.47656,1.1875 -0.88281,0.27344 -1.78906,0.40625 -2.71485,0.40625 -0.92578,0 -1.83203,-0.13281 -2.71484,-0.40625 -0.88672,-0.26953 -1.71094,-0.66797 -2.47656,-1.1875 -1.26172,0.51953 -2.41797,1.20703 -3.47266,2.0664 -1.05469,0.86329 -1.96094,1.85938 -2.72265,2.98829 -0.75782,1.1289 -1.33594,2.34765 -1.73438,3.64843 -0.39844,1.30078 -0.59766,2.63282 -0.60156,3.9961 0,0.375 0.0742,0.73437 0.21484,1.07812 0.14453,0.34766 0.34766,0.65235 0.61328,0.91406 0.26172,0.26563 0.56641,0.46875 0.91407,0.61329 0.34375,0.14062 0.70312,0.21484 1.07812,0.21484 h 21.82031 c 0.375,0 0.73438,-0.0742 1.08203,-0.21484 0.34375,-0.14454 0.64844,-0.34766 0.91407,-0.61329 0.26562,-0.26171 0.46875,-0.5664 0.60937,-0.91406 0.14453,-0.34375 0.21484,-0.70312 0.21484,-1.07812 0,-1.36328 -0.19921,-2.69532 -0.59765,-4 -0.39844,-1.30469 -0.98047,-2.51953 -1.73828,-3.65235 -0.76172,-1.1289 -1.67188,-2.125 -2.73047,-2.98437 -1.0586,-0.85938 -2.21875,-1.54688 -3.48047,-2.0625 z m 0,0"
         fill-opacity="1"
         fill-rule="nonzero"
         id="path252" />
    </g>
    <g
       clip-path="url(#436ed3503d)"
       id="g253">
      <path
         fill="#e0deda"
         d="m 116.55078,431.41797 c 0,0.4375 0.043,0.87109 0.12891,1.30078 0.0859,0.42969 0.21484,0.84375 0.38281,1.25 0.16797,0.40234 0.37109,0.78516 0.61719,1.14844 0.24219,0.36328 0.51953,0.69922 0.82812,1.00781 0.3086,0.30859 0.64453,0.58594 1.00782,0.82812 0.36328,0.24219 0.75,0.44922 1.15234,0.61329 0.40625,0.16796 0.82031,0.29687 1.25,0.3789 0.42969,0.0859 0.86328,0.12891 1.30078,0.12891 0.4375,0 0.87109,-0.043 1.29688,-0.12891 0.42968,-0.0859 0.84765,-0.21094 1.25,-0.3789 0.40625,-0.16797 0.78906,-0.3711 1.15234,-0.61719 0.36328,-0.24219 0.69922,-0.51953 1.00781,-0.82813 0.30859,-0.30859 0.58594,-0.64453 0.82813,-1.00781 0.24609,-0.36328 0.44921,-0.74609 0.61718,-1.15234 0.16797,-0.40235 0.29297,-0.82032 0.37891,-1.25 0.0859,-0.42578 0.12891,-0.85938 0.12891,-1.29688 0,-0.4375 -0.043,-0.87109 -0.12891,-1.30078 -0.082,-0.42969 -0.21094,-0.84375 -0.375,-1.25 -0.16797,-0.40234 -0.375,-0.78906 -0.61719,-1.15234 -0.24219,-0.36328 -0.51953,-0.69922 -0.82812,-1.00782 -0.3086,-0.30859 -0.64453,-0.58593 -1.00781,-0.82812 -0.36329,-0.24609 -0.7461,-0.44922 -1.14844,-0.61719 -0.40625,-0.16797 -0.82031,-0.29687 -1.25,-0.38281 -0.42969,-0.0859 -0.86328,-0.12891 -1.30078,-0.12891 -0.4375,0 -0.8711,0.043 -1.30078,0.12891 -0.42969,0.0859 -0.84766,0.21094 -1.25391,0.37891 -0.40234,0.16796 -0.78906,0.37109 -1.15234,0.61718 -0.36329,0.24219 -0.70313,0.51953 -1.01172,0.82813 -0.3086,0.30859 -0.58594,0.64844 -0.82813,1.01172 -0.24609,0.36328 -0.44922,0.75 -0.61719,1.15234 -0.16796,0.40625 -0.29296,0.82422 -0.3789,1.25391 -0.0859,0.42968 -0.12891,0.86328 -0.12891,1.30078 z m 0,0"
         fill-opacity="1"
         fill-rule="nonzero"
         id="path253" />
    </g>
    <g
       clip-path="url(#e872ba33f5)"
       id="g254">
      <path
         fill="#e0deda"
         d="m 145.83594,437.51953 h -4.42969 v -4.42969 c 0,-0.17578 -0.0312,-0.34375 -0.0977,-0.5039 -0.0664,-0.16016 -0.16406,-0.30469 -0.28515,-0.42578 -0.125,-0.125 -0.26563,-0.21875 -0.42578,-0.28516 -0.16016,-0.0664 -0.32813,-0.10156 -0.50391,-0.10156 -0.17578,0 -0.33984,0.0351 -0.50391,0.10156 -0.16015,0.0664 -0.30078,0.16016 -0.42578,0.28516 -0.12109,0.12109 -0.21875,0.26562 -0.28515,0.42578 -0.0664,0.16015 -0.0977,0.32812 -0.0977,0.5039 v 4.42969 h -4.42969 c -0.17578,0 -0.34375,0.0312 -0.5039,0.0977 -0.16016,0.0664 -0.30469,0.16406 -0.42579,0.28515 -0.125,0.125 -0.21875,0.26563 -0.28515,0.42578 -0.0664,0.16407 -0.10156,0.32813 -0.10156,0.50391 0,0.17578 0.0352,0.34375 0.10156,0.50391 0.0664,0.16015 0.16015,0.30078 0.28515,0.42578 0.1211,0.12109 0.26563,0.21875 0.42579,0.28515 0.16015,0.0664 0.32812,0.0977 0.5039,0.0977 h 4.42969 v 4.42969 c 0,0.17578 0.0312,0.34375 0.0977,0.5039 0.0664,0.16016 0.16406,0.30079 0.28515,0.42579 0.125,0.12109 0.26563,0.21875 0.42578,0.28515 0.16407,0.0664 0.32813,0.0977 0.50391,0.0977 0.17578,0 0.34375,-0.0312 0.50391,-0.0977 0.16015,-0.0664 0.30078,-0.16406 0.42578,-0.28515 0.12109,-0.125 0.21875,-0.26563 0.28515,-0.42579 0.0664,-0.16015 0.0977,-0.32812 0.0977,-0.5039 v -4.42969 h 4.42969 c 0.17187,0 0.33984,-0.0312 0.5,-0.0977 0.16406,-0.0664 0.30468,-0.16406 0.42578,-0.28515 0.125,-0.125 0.21875,-0.26563 0.28515,-0.42578 0.0664,-0.16016 0.10157,-0.32813 0.10157,-0.50391 0,-0.17578 -0.0352,-0.33984 -0.10157,-0.50391 -0.0664,-0.16015 -0.16015,-0.30078 -0.28515,-0.42578 -0.1211,-0.12109 -0.26172,-0.21875 -0.42578,-0.28515 -0.16016,-0.0664 -0.32813,-0.0977 -0.5,-0.0977 z m 0,0"
         fill-opacity="1"
         fill-rule="nonzero"
         id="path254" />
    </g>
  </g>
</svg>
