<?xml version="1.0" encoding="UTF-8" standalone="no"?>
<svg
   width="19.927063"
   zoomAndPan="magnify"
   viewBox="0 0 14.945297 24.714843"
   height="32.953125"
   preserveAspectRatio="xMidYMid"
   version="1.0"
   id="svg2115"
   sodipodi:docname="location.svg"
   inkscape:version="1.4.2 (ebf0e940, 2025-05-08)"
   xmlns:inkscape="http://www.inkscape.org/namespaces/inkscape"
   xmlns:sodipodi="http://sodipodi.sourceforge.net/DTD/sodipodi-0.dtd"
   xmlns="http://www.w3.org/2000/svg"
   xmlns:svg="http://www.w3.org/2000/svg">
  <sodipodi:namedview
     id="namedview1"
     pagecolor="#ffffff"
     bordercolor="#000000"
     borderopacity="0.25"
     inkscape:showpageshadow="2"
     inkscape:pageopacity="0.0"
     inkscape:pagecheckerboard="0"
     inkscape:deskcolor="#d1d1d1"
     inkscape:zoom="10.965325"
     inkscape:cx="1.6871364"
     inkscape:cy="7.2045285"
     inkscape:window-width="1712"
     inkscape:window-height="1045"
     inkscape:window-x="0"
     inkscape:window-y="34"
     inkscape:window-maximized="0"
     inkscape:current-layer="svg2115" />
  <defs
     id="defs174">
    <clipPath
       clipPathUnits="userSpaceOnUse"
       id="clipPath1">
      <path
         d="M -0.02346,-1e-5 H 14.96872 V 24.73436 H -0.02346 Z m 0,0"
         clip-rule="nonzero"
         id="path1"
         style="stroke-width:0.999997" />
    </clipPath>
  </defs>
  <path
     fill="#000000"
     d="m 7.47263,-0.01173 c -4.11719,0 -7.47266,3.44141 -7.47266,7.67187 0,4.14844 7.04688,16.32032 7.34766,16.83594 l 0.125,0.21875 0.12891,-0.21875 c 0.29687,-0.51562 7.34375,-12.6875 7.34375,-16.83594 -0.004,-4.23046 -3.35547,-7.67187 -7.47266,-7.67187 z m 0,11.25391 c -1.78125,0 -3.23047,-1.48829 -3.23047,-3.31641 0,-1.83203 1.44922,-3.32031 3.23047,-3.32031 1.78125,0 3.23047,1.48828 3.23047,3.32031 0,1.82812 -1.44922,3.31641 -3.23047,3.31641 z m 0,0"
     fill-opacity="1"
     fill-rule="nonzero"
     id="path642"
     clip-path="url(#clipPath1)" />
</svg>
