<?xml version="1.0" encoding="UTF-8" standalone="no"?>
<svg
   width="32.728149"
   zoomAndPan="magnify"
   viewBox="0 0 24.546112 24.239318"
   height="32.319092"
   preserveAspectRatio="xMidYMid"
   version="1.0"
   id="svg2115"
   xmlns="http://www.w3.org/2000/svg"
   xmlns:svg="http://www.w3.org/2000/svg">
  <defs
     id="defs174">
    <clipPath
       id="80b4cb37c2">
      <path
         d="m 294.20703,775.58984 h 24.73438 v 24.73438 h -24.73438 z m 0,0"
         clip-rule="nonzero"
         id="path171" />
    </clipPath>
  </defs>
  <g
     id="g2116"
     transform="translate(-294.38357,-775.82502)">
    <g
       clip-path="url(#80b4cb37c2)"
       id="g644">
      <path
         fill="#000000"
         d="m 318.24219,787.94531 c -0.008,2.37891 -0.75391,4.70313 -2.14844,6.64453 -1.33984,1.86328 -3.26563,3.31641 -5.44141,4.10157 -2.29297,0.82812 -4.82422,0.92187 -7.17578,0.26171 -2.25,-0.63281 -4.26562,-1.94921 -5.75781,-3.72656 -1.51172,-1.79687 -2.4375,-4.0625 -2.61328,-6.39062 -0.17969,-2.37891 0.38672,-4.76953 1.63672,-6.8086 1.20703,-1.96875 3.00781,-3.54687 5.125,-4.5039 2.19922,-0.9961 4.72656,-1.26953 7.09375,-0.79297 2.3125,0.46484 4.44531,1.6289 6.07422,3.3164 1.63281,1.6836 2.70703,3.83985 3.07031,6.14063 0.0937,0.58203 0.13281,1.17187 0.13672,1.75781 0,0.4375 0.6875,0.4375 0.6875,0 -0.008,-2.49609 -0.78907,-4.97265 -2.26172,-7.00781 -1.44141,-1.99609 -3.46875,-3.53125 -5.80078,-4.37891 -2.41016,-0.875 -5.10547,-0.96875 -7.57032,-0.27343 -2.3789,0.66796 -4.53515,2.05859 -6.10546,3.94531 -1.59766,1.92187 -2.56641,4.28515 -2.76954,6.76562 -0.20312,2.50782 0.40625,5.0625 1.72657,7.21485 1.3164,2.15234 3.18359,3.76953 5.42578,4.76953 2.35547,1.05469 5.0039,1.34765 7.53906,0.84375 2.43359,-0.48438 4.69531,-1.72656 6.41016,-3.4961 1.71875,-1.77734 2.88281,-4.07031 3.25781,-6.5039 0.0937,-0.6211 0.14453,-1.2461 0.14844,-1.87891 0,-0.4375 -0.6875,-0.4375 -0.6875,0 z m 0,0"
         fill-opacity="1"
         fill-rule="nonzero"
         id="path643" />
    </g>
    <path
       fill="#000000"
       d="m 312.85156,783.72266 v 8.18359 c 0,0.0703 0,0.14062 0,0.20703 0,0.0781 -0.0312,0.0977 0.004,0.0156 l 0.15625,-0.20313 -0.0234,0.008 0.17578,-0.0469 h -13.01562 l 0.17578,0.0469 -0.0234,-0.008 0.16016,0.20313 c 0.0234,0.0625 0,0.0781 0,0.004 0.004,-0.0547 0,-0.10937 0,-0.16406 v -8.23828 l -0.0469,0.17187 0.0195,-0.0312 -0.29687,0.16797 0.0312,0.004 -0.17188,-0.0469 c 0.82032,0.57813 1.64063,1.15625 2.46094,1.73438 0.98438,0.6914 1.96484,1.38281 2.94531,2.07812 0.33985,0.23828 0.66797,0.51172 1.02344,0.71875 0.30469,0.17969 0.58594,-0.11718 0.81641,-0.28125 0.20312,-0.14062 0.40234,-0.28125 0.60547,-0.42187 0.85937,-0.60547 1.71875,-1.20703 2.57812,-1.8086 0.9375,-0.65625 1.88281,-1.30468 2.8125,-1.97265 0.008,-0.004 0.0195,-0.0117 0.0273,-0.0195 0.004,0 0.004,0 0.004,-0.004 0.004,0 0.0703,-0.0508 0.0703,-0.0508 -0.008,0.008 -0.082,0.0625 -0.0195,0.0195 l -0.17187,0.0469 h 0.0312 c -0.0977,-0.0547 -0.19922,-0.11329 -0.29688,-0.16797 l 0.0156,0.0273 c 0.21484,0.38281 0.80859,0.043 0.59375,-0.33984 l -0.0156,-0.0312 c -0.0586,-0.10157 -0.17969,-0.16797 -0.29687,-0.16797 -0.15625,0.004 -0.20313,0.0898 -0.32422,0.13281 0,0 0.10156,-0.0742 0.0508,-0.043 -0.0391,0.0234 -0.0742,0.0547 -0.11328,0.0781 -0.16016,0.11328 -0.32031,0.22656 -0.48047,0.33984 -0.55859,0.39063 -1.11719,0.78125 -1.67578,1.17188 -1.01172,0.71093 -2.02735,1.42187 -3.04297,2.13281 -0.37109,0.26172 -0.74219,0.52344 -1.11719,0.78515 l 0.17578,-0.0469 h -0.0351 c 0.0547,0.0156 0.11328,0.0312 0.17187,0.0469 -0.6875,-0.48437 -1.375,-0.96875 -2.0625,-1.45312 -1.17578,-0.82813 -2.35547,-1.66016 -3.53515,-2.49219 -0.21485,-0.14844 -0.42579,-0.30078 -0.64063,-0.44922 -0.14062,-0.0976 -0.23437,-0.1875 -0.41406,-0.19531 -0.1211,-0.008 -0.24219,0.0664 -0.30078,0.16797 -0.12891,0.21875 -0.0625,0.58594 -0.0625,0.82812 v 7.41407 c 0,0.30859 -0.0703,0.76562 0.3789,0.79297 0.60938,0.043 1.23438,0 1.84375,0 2.78516,0 5.56641,0 8.34766,0 h 2.63281 c 0.28125,0 0.54688,-0.0586 0.5625,-0.41016 0.0117,-0.31641 0,-0.63672 0,-0.95313 v -7.47656 c 0,-0.4375 -0.6875,-0.4375 -0.6875,0 z m 0,0"
       fill-opacity="1"
       fill-rule="nonzero"
       id="path644" />
    <path
       fill="#000000"
       d="m 305.37891,787.35547 c -1.58985,1.33594 -3.17969,2.67578 -4.76954,4.01172 -0.22656,0.1914 -0.45703,0.38281 -0.68359,0.57422 l 0.24219,-0.0977 -0.0312,0.004 0.29687,0.16796 -0.0195,-0.0312 0.0469,0.17188 v -8.42578 l -0.0469,0.17187 0.0195,-0.0312 -0.29687,0.16797 0.0312,0.004 -0.17578,-0.0469 c 1.59375,1.1211 3.18359,2.24219 4.77343,3.36328 l 0.49219,0.34375 c 0.043,0.0312 0.0899,0.0664 0.13672,0.0977 0.0977,0.0625 -0.004,0.043 -0.0586,-0.0625 v -0.33984 l -0.0117,0.0273 c -0.0742,0.16797 -0.0508,0.35938 0.12109,0.46094 0.14453,0.0859 0.39844,0.0469 0.47266,-0.1211 0.17578,-0.41015 -0.25391,-0.60546 -0.53516,-0.80468 -0.43359,-0.30469 -0.86719,-0.60938 -1.29687,-0.91407 -1.02735,-0.72265 -2.05469,-1.44531 -3.07813,-2.16796 l -0.5,-0.35157 c -0.1289,-0.0898 -0.20312,-0.15625 -0.37109,-0.16406 -0.1211,-0.008 -0.24219,0.0664 -0.29688,0.16797 -0.0781,0.12891 -0.0664,0.24609 -0.0664,0.38672 v 7.99609 c 0,0.15235 -0.0195,0.3086 0.0664,0.44531 0.0547,0.0937 0.17969,0.1836 0.29688,0.16797 0.29297,-0.0351 0.53906,-0.32422 0.75781,-0.50781 l 1.27344,-1.07031 c 0.99609,-0.83985 1.99219,-1.67969 2.98828,-2.51953 0.23828,-0.19922 0.47266,-0.39453 0.70703,-0.59375 0.33594,-0.28516 -0.15234,-0.76172 -0.48437,-0.48047 z m 0,0"
       fill-opacity="1"
       fill-rule="nonzero"
       id="path645" />
    <path
       fill="#000000"
       d="m 312.85156,783.72266 v 8.43359 l 0.0469,-0.17188 -0.0195,0.0312 0.29687,-0.16796 -0.0312,-0.004 0.24219,0.0977 c -1.58594,-1.34766 -3.17188,-2.69532 -4.75781,-4.04297 -0.16797,-0.14063 -0.33204,-0.28125 -0.4961,-0.42188 -0.0469,-0.0391 -0.0937,-0.0781 -0.14062,-0.11719 -0.0508,-0.043 -0.0312,-0.0625 -0.004,0 v 0.34375 c -0.0547,0.10547 -0.15625,0.125 -0.0703,0.0664 0.0391,-0.0234 0.0781,-0.0508 0.11719,-0.0781 l 0.39453,-0.27735 c 0.4414,-0.30859 0.8789,-0.61719 1.32031,-0.92578 0.96875,-0.67969 1.9375,-1.35937 2.91016,-2.03906 0.15234,-0.10938 0.30859,-0.21875 0.46093,-0.32422 0.0391,-0.0273 0.082,-0.0547 0.1211,-0.0859 0.008,-0.004 0.0156,-0.0117 0.0234,-0.0156 0.1875,-0.13672 -0.0195,0.0117 0.0547,-0.0352 l -0.17187,0.0469 h 0.0312 c -0.10157,-0.0547 -0.19922,-0.11329 -0.29688,-0.16797 l 0.0156,0.0273 c 0.21484,0.38281 0.80859,0.0391 0.59375,-0.34375 l -0.0156,-0.0273 c -0.0586,-0.10157 -0.17969,-0.16797 -0.29687,-0.16797 -0.0586,0 -0.30469,0.0391 -0.32813,0.1289 0.0274,-0.0937 0.0977,-0.0625 0.0625,-0.0469 -0.0312,0.0156 -0.0586,0.043 -0.0859,0.0625 l -0.38671,0.27344 c -0.46485,0.32422 -0.92579,0.64843 -1.38672,0.97265 -1.02344,0.71485 -2.04297,1.42969 -3.0625,2.14453 -0.25391,0.17969 -0.79297,0.4336 -0.59766,0.8125 0.10547,0.21094 0.39063,0.375 0.56641,0.52344 0.95312,0.8086 1.90234,1.61719 2.85547,2.42578 0.5,0.42188 0.99609,0.84766 1.49609,1.26953 0.23828,0.20313 0.53516,0.5625 0.86328,0.60547 0.11719,0.0156 0.24219,-0.0781 0.29688,-0.16797 0.0781,-0.125 0.0664,-0.24609 0.0664,-0.38281 v -8.2539 c 0,-0.4375 -0.6875,-0.4375 -0.6875,0 z m 0,0"
       fill-opacity="1"
       fill-rule="nonzero"
       id="path646" />
    <path
       fill="#000000"
       d="m 312.89844,783.96094 0.0312,0.0195 -0.15625,-0.38281 c 0.008,-0.0508 0.22656,-0.21485 0.10547,-0.13282 -0.0508,0.0352 -0.0977,0.0703 -0.14844,0.10157 l -0.51953,0.36718 c -0.5625,0.39453 -1.125,0.78907 -1.6836,1.17969 -0.98047,0.6875 -1.96093,1.375 -2.9414,2.0625 -0.3711,0.25781 -0.73828,0.51953 -1.10547,0.77734 l 0.17187,-0.0469 h -0.0391 c 0.0586,0.0156 0.11719,0.0312 0.17578,0.0469 -0.66797,-0.47265 -1.33984,-0.94531 -2.00781,-1.41406 -1.16016,-0.82031 -2.32422,-1.63672 -3.48438,-2.45703 -0.21875,-0.15234 -0.4414,-0.30859 -0.66015,-0.46484 -0.0625,-0.043 -0.1211,-0.0859 -0.1836,-0.12891 -0.10937,-0.0742 -0.0312,-0.0703 0.0391,0.0469 l 0.0351,0.26171 0.008,-0.0273 -0.16016,0.20313 0.0273,-0.0117 -0.17187,0.0469 h 12.84375 c 0.4414,0 0.4414,-0.67969 0,-0.67969 h -5.39844 c -2.34375,0 -4.69141,0 -7.03906,0 -0.17578,0 -0.41797,-0.0352 -0.58203,0.0469 -0.32032,0.16406 -0.20703,0.51562 0.0273,0.68359 0.11719,0.082 0.23438,0.16407 0.34766,0.24219 1.02734,0.72656 2.05468,1.44922 3.08593,2.17578 0.66407,0.46875 1.32813,0.9375 1.99219,1.40625 0.25,0.17188 0.5,0.34766 0.7461,0.52344 0.21484,0.14844 0.41015,0.24609 0.65234,0.0781 0.33203,-0.23437 0.66406,-0.46484 0.99219,-0.69921 1.76172,-1.23047 3.51953,-2.46485 5.27734,-3.69922 0.11719,-0.082 0.23047,-0.14844 0.26172,-0.30469 0.0273,-0.16016 -0.0234,-0.29297 -0.16016,-0.38672 l -0.0312,-0.0195 c -0.36328,-0.25 -0.70703,0.33594 -0.34765,0.58594 z m 0,0"
       fill-opacity="1"
       fill-rule="nonzero"
       id="path647" />
  </g>
</svg>
