<?xml version="1.0" encoding="UTF-8" standalone="no"?>
<svg
   width="32.979156"
   zoomAndPan="magnify"
   viewBox="0 0 24.734367 24.738281"
   height="32.984375"
   preserveAspectRatio="xMidYMid"
   version="1.0"
   id="svg2115"
   xmlns="http://www.w3.org/2000/svg"
   xmlns:svg="http://www.w3.org/2000/svg">
  <defs
     id="defs174">
    <clipPath
       id="f31d63c50d">
      <path
         d="m 294.20703,805.51953 h 24.73438 v 24.73828 h -24.73438 z m 0,0"
         clip-rule="nonzero"
         id="path173" />
    </clipPath>
  </defs>
  <g
     id="g2117"
     transform="translate(-294.20706,-805.51946)">
    <g
       clip-path="url(#f31d63c50d)"
       id="g780">
      <path
         fill="#000000"
         d="m 306.57422,805.51953 c -6.82031,0 -12.36719,5.54688 -12.36719,12.36719 0,6.82422 5.54688,12.37109 12.36719,12.37109 6.82031,0 12.36719,-5.54687 12.36719,-12.37109 0,-6.82031 -5.54688,-12.36719 -12.36719,-12.36719 z m 0,23.86719 c -6.34766,0 -11.5,-5.14844 -11.5,-11.5 0,-6.34766 5.15234,-11.5 11.5,-11.5 6.35156,0 11.5,5.15234 11.5,11.5 0,6.35156 -5.14844,11.5 -11.5,11.5 z m 0,0"
         fill-opacity="1"
         fill-rule="nonzero"
         id="path779" />
    </g>
    <path
       fill="#000000"
       d="m 311.81641,822.34766 c 0.76953,-0.92188 0.20312,-1.46094 -0.30469,-1.84766 -0.51172,-0.38672 -1.71485,-0.88281 -2.08594,-0.44141 -0.36719,0.44532 -0.95703,1 -1.41406,0.87891 -0.76953,-0.20313 -1.75,-1.23828 -2.4961,-1.98828 -0.75,-0.7461 -1.78515,-1.72656 -1.98828,-2.4961 -0.12109,-0.45703 0.39453,-1.01562 0.875,-1.41796 0.48438,-0.40235 -0.0234,-1.52735 -0.4375,-2.08204 -0.41797,-0.55468 -0.92578,-1.07812 -1.85156,-0.30859 -0.92187,0.76953 -2.08594,2.81641 0.0625,5.9375 0.55078,0.79688 1.02344,1.26172 1.73438,1.96875 0.71093,0.71094 1.17187,1.1875 1.97265,1.73828 3.1211,2.14844 5.16406,0.98438 5.9336,0.0586 z m 0,0"
       fill-opacity="1"
       fill-rule="nonzero"
       id="path780" />
    <path
       fill="#000000"
       d="m 309.23437,818.37109 c -0.11328,0 -0.21093,-0.0351 -0.29296,-0.11328 -0.082,-0.0742 -0.12891,-0.16797 -0.13672,-0.28125 -0.0274,-0.26953 -0.0977,-0.52734 -0.21094,-0.77344 -0.11719,-0.24609 -0.26953,-0.46484 -0.46094,-0.66015 -0.1914,-0.19141 -0.41406,-0.34375 -0.66015,-0.46094 -0.2461,-0.11328 -0.50391,-0.18359 -0.77344,-0.20703 -0.1211,-0.0117 -0.21875,-0.0625 -0.29688,-0.15625 -0.0742,-0.0898 -0.10937,-0.19531 -0.0976,-0.31641 0.0117,-0.12109 0.0625,-0.21875 0.15234,-0.29297 0.0937,-0.0781 0.19922,-0.10937 0.32031,-0.10156 0.3711,0.0352 0.72657,0.13281 1.0625,0.28906 0.33985,0.16016 0.64063,0.3711 0.90235,0.63282 0.26562,0.26562 0.47656,0.5664 0.63672,0.90234 0.15625,0.33984 0.2539,0.69531 0.28906,1.06641 0.0117,0.11718 -0.0234,0.22656 -0.10156,0.3164 -0.0742,0.0937 -0.17188,0.14453 -0.29297,0.15625 z m 0,0"
       fill-opacity="1"
       fill-rule="nonzero"
       id="path781" />
    <path
       fill="#000000"
       d="m 311.25,818.39453 c -0.11328,0 -0.21484,-0.0391 -0.29688,-0.11719 -0.0859,-0.082 -0.1289,-0.17968 -0.13671,-0.29687 -0.0234,-0.53906 -0.14454,-1.05469 -0.36329,-1.54688 -0.21875,-0.49218 -0.51953,-0.92968 -0.89843,-1.3125 -0.38282,-0.3789 -0.82032,-0.67968 -1.3125,-0.89843 -0.49219,-0.21875 -1.00782,-0.33985 -1.54688,-0.36329 -0.12109,-0.008 -0.21875,-0.0547 -0.30078,-0.14062 -0.082,-0.0898 -0.11719,-0.19531 -0.11328,-0.3125 0.008,-0.12109 0.0547,-0.22266 0.14062,-0.30469 0.0899,-0.0781 0.19532,-0.11719 0.3125,-0.10937 0.64844,0.0312 1.26563,0.17578 1.85938,0.4375 0.58984,0.26172 1.11328,0.62109 1.57422,1.08203 0.45703,0.45703 0.8164,0.98047 1.07812,1.57031 0.26172,0.59375 0.41016,1.21094 0.44141,1.85938 0.004,0.11718 -0.0352,0.22265 -0.11719,0.3125 -0.0781,0.0859 -0.17969,0.13281 -0.30078,0.14062 z m 0,0"
       fill-opacity="1"
       fill-rule="nonzero"
       id="path782" />
  </g>
</svg>
