<?xml version="1.0" encoding="UTF-8" standalone="no"?>
<svg
   width="49.973969"
   zoomAndPan="magnify"
   viewBox="0 0 37.480476 34.480455"
   height="45.973942"
   preserveAspectRatio="xMidYMid"
   version="1.0"
   id="svg2115"
   xmlns="http://www.w3.org/2000/svg"
   xmlns:svg="http://www.w3.org/2000/svg">
  <defs
     id="defs174">
    <clipPath
       id="4d5b5433f1">
      <path
         d="m 108.84375,655.66797 h 37.48047 v 34.48047 h -37.48047 z m 0,0"
         clip-rule="nonzero"
         id="path154" />
    </clipPath>
  </defs>
  <g
     clip-path="url(#4d5b5433f1)"
     id="g245"
     transform="translate(-108.84375,-655.66799)">
    <path
       fill="#e0deda"
       d="M 127.57031,681.91016 H 113.5 c -0.21484,0 -0.38672,-0.17188 -0.38672,-0.38672 v -1.20313 c 0,-0.21484 0.17188,-0.38672 0.38672,-0.38672 h 14.07031 z m 2.56641,-9.51563 v -7.30078 c 0,-0.10156 0.0391,-0.19922 0.11328,-0.26953 0.0703,-0.0742 0.16797,-0.11328 0.26953,-0.11328 h 3.28125 c 0.10156,0 0.19922,0.0391 0.27344,0.11328 0.0703,0.0703 0.11328,0.16797 0.11328,0.26953 v 7.25 h -3.48438 c -0.19531,0 -0.38281,0.0156 -0.5664,0.0508 z m 7.51953,-0.0508 v -11.07422 c 0,-0.10156 0.043,-0.19922 0.11328,-0.27344 0.0742,-0.0703 0.17188,-0.10937 0.27344,-0.10937 h 3.27734 c 0.10156,0 0.20313,0.0391 0.27344,0.10937 0.0742,0.0742 0.11328,0.17188 0.11328,0.27344 v 11.07422 z m -22.5625,6.35547 v -5.28125 c 0,-0.21094 0.17188,-0.38281 0.38672,-0.38281 h 3.27734 c 0.21094,0 0.38672,0.17187 0.38672,0.38281 v 5.28125 z m 7.51953,0 v -9.35156 c 0,-0.21485 0.17578,-0.38672 0.38672,-0.38672 h 3.27734 c 0.21485,0 0.38672,0.17187 0.38672,0.38672 v 9.35156 z m 6.19141,6.29687 v -9.51953 c 0,-1.04297 0.85156,-1.89844 1.89843,-1.89844 h 13.90625 c 1.04688,0 1.90235,0.85547 1.90235,1.89844 v 9.51953 c 0,1.04688 -0.85547,1.89844 -1.90235,1.89844 h -1.60546 v 2.91016 c 0,0.15625 -0.0977,0.29687 -0.24219,0.35547 -0.14453,0.0586 -0.3125,0.0234 -0.42188,-0.0899 l -3.05468,-3.17578 h -8.58204 c -1.04687,0 -1.89843,-0.85156 -1.89843,-1.89844 z m 8.76953,-1.08203 c 0.0508,0.0312 0.11328,0.0312 0.16797,0 1.42968,-0.86719 4.07031,-2.85547 4.10547,-4.83594 0.0391,-2.21093 -2.375,-3.21093 -4.19141,-1.3125 -1.81641,-1.89843 -4.22656,-0.89843 -4.1875,1.3125 0.0352,1.98047 2.67187,3.96875 4.10547,4.83594 z m -21.77344,-28.24609 c 3.83985,0 6.95313,3.11719 6.95313,6.95703 0,3.83594 -3.11328,6.95312 -6.95313,6.95312 -3.83984,0 -6.95703,-3.11718 -6.95703,-6.95312 0,-3.83984 3.11719,-6.95703 6.95703,-6.95703 z m 1.9961,7.55469 c -0.98829,0 -1.79297,0.80078 -1.79297,1.79296 0,0.98829 0.80468,1.78907 1.79297,1.78907 0.98828,0 1.79296,-0.80078 1.79296,-1.78907 0,-0.48046 -0.1875,-0.92968 -0.52734,-1.26953 -0.33594,-0.33593 -0.78906,-0.52343 -1.26562,-0.52343 z m 0,1.23437 c 0.14843,0 0.28906,0.0586 0.39453,0.16406 0.10547,0.10547 0.16015,0.24219 0.16015,0.39453 0,0.30469 -0.24609,0.55469 -0.55468,0.55469 -0.3086,0 -0.5586,-0.25 -0.5586,-0.55469 0,-0.30859 0.25,-0.55859 0.5586,-0.55859 z m -0.0156,-5.62109 -4.92187,6.85156 c -0.19922,0.27734 -0.13672,0.66406 0.14062,0.86328 0.27734,0.19531 0.66406,0.13281 0.86328,-0.14453 l 4.92188,-6.84766 c 0.19922,-0.27734 0.13672,-0.66406 -0.14063,-0.86328 -0.27734,-0.19922 -0.66406,-0.13672 -0.86328,0.14063 z m -3.97656,-0.39453 c -0.98828,0 -1.79297,0.80078 -1.79297,1.79296 0,0.99219 0.80469,1.78907 1.79297,1.78907 0.99219,0 1.79297,-0.80078 1.79297,-1.78907 0,-0.47656 -0.1875,-0.92968 -0.52735,-1.26953 -0.33593,-0.33593 -0.78906,-0.52343 -1.26562,-0.52343 z m 0,1.23437 c 0.14844,0 0.28906,0.0586 0.39453,0.16406 0.10547,0.10547 0.16406,0.2461 0.16406,0.39453 0,0.30469 -0.25,0.55469 -0.55859,0.55469 -0.3086,0 -0.5586,-0.24609 -0.5586,-0.55469 0,-0.30859 0.25,-0.55859 0.5586,-0.55859 z m 0,0"
       fill-opacity="1"
       fill-rule="evenodd"
       id="path244" />
  </g>
</svg>
