<svg xmlns="http://www.w3.org/2000/svg" viewBox="0 0 24 24">
  <path fill="currentColor" d="M12 2a10 10 0 1 0 0 20 10 10 0 0 0 0-20Zm6.92 6h-3.04a16.8 16.8 0 0 0-1.4-3.27A8.05 8.05 0 0 1 18.92 8ZM12 4c.9 1.1 1.58 2.45 1.91 4h-3.82A10.98 10.98 0 0 1 12 4ZM9.52 4.73A16.8 16.8 0 0 0 8.12 8H5.08a8.05 8.05 0 0 1 4.44-3.27ZM4.26 10h3.56a16.5 16.5 0 0 0 0 4H4.26a8.14 8.14 0 0 1 0-4Zm.82 6h3.04a16.8 16.8 0 0 0 1.4 3.27A8.05 8.05 0 0 1 5.08 16ZM12 20a10.98 10.98 0 0 1-1.91-4h3.82A10.98 10.98 0 0 1 12 20Zm2.25-6h-4.5a14.3 14.3 0 0 1 0-4h4.5a14.3 14.3 0 0 1 0 4Zm.23 5.27A16.8 16.8 0 0 0 15.88 16h3.04a8.05 8.05 0 0 1-4.44 3.27ZM16.18 14a16.5 16.5 0 0 0 0-4h3.56a8.14 8.14 0 0 1 0 4h-3.56Z"/>
</svg>
